<?xml version="1.0" standalone="no"?>
<!DOCTYPE svg PUBLIC "-//W3C//DTD SVG 20010904//EN"
 "http://www.w3.org/TR/2001/REC-SVG-20010904/DTD/svg10.dtd">
<svg version="1.0" xmlns="http://www.w3.org/2000/svg"
 width="561.000000pt" height="570.000000pt" viewBox="0 0 561.000000 570.000000"
 preserveAspectRatio="xMidYMid meet">

<g transform="translate(0.000000,570.000000) scale(0.100000,-0.100000)"
fill="#000000" stroke="none">
<path d="M2750 4130 l0 -80 -80 0 -80 0 0 -80 0 -80 -80 0 -80 0 0 -80 0 -80
-80 0 -80 0 0 -80 0 -80 -80 0 -80 0 0 -80 0 -80 -160 0 -160 0 0 -80 0 -80
-80 0 -80 0 0 -81 0 -81 -30 7 c-17 4 -53 4 -80 0 l-50 -7 0 -316 0 -317 -157
1 -158 2 -5 79 -5 80 -75 -1 -75 -1 -5 161 -5 161 -75 -1 -75 -1 -5 81 -5 80
-112 3 c-61 1 -132 -1 -157 -4 l-46 -7 2 -237 3 -236 75 0 75 0 5 -160 5 -160
75 0 75 0 5 -80 5 -80 158 0 157 0 0 -77 0 -78 320 0 320 0 0 -80 0 -80 160 0
160 0 0 -80 0 -80 880 0 879 0 3 78 3 77 157 3 157 3 3 77 3 77 78 3 77 3 0
74 0 75 73 1 c39 1 75 1 80 0 4 0 7 145 7 323 l0 323 -67 -1 c-38 -1 -74 0
-80 2 -10 3 -13 140 -13 638 l0 633 -77 3 -78 3 -3 78 -3 77 -79 0 -80 0 0
-80 0 -80 -80 0 -80 0 0 -80 0 -80 -80 0 -80 0 0 -80 0 -80 -80 0 -80 0 0 -80
0 -81 -157 3 -158 3 -3 77 -3 77 -77 3 -77 3 -3 157 -3 157 -77 3 -77 3 -3 78
-3 77 -79 0 -80 0 0 -80z m160 -400 l0 -160 -80 0 -80 0 0 -80 0 -81 -157 3
-158 3 -3 78 -3 77 81 0 80 0 0 80 0 80 80 0 80 0 0 80 0 80 80 0 80 0 0 -160z
m1280 -80 l0 -241 -77 3 -78 3 -3 77 -3 77 -77 3 -77 3 -3 78 -3 77 81 0 80 0
0 80 0 80 80 0 80 0 0 -240z m-1280 -1197 l0 -158 -68 1 c-37 1 -73 2 -79 3
-10 1 -13 39 -13 156 l0 155 80 0 80 0 0 -157z m1120 0 l0 -158 -68 1 c-37 1
-73 2 -79 3 -10 1 -13 39 -13 156 l0 155 80 0 80 0 0 -157z"/>
</g>
</svg>
